<svg width="290" height="73" viewBox="0 0 290 73" fill="none" xmlns="http://www.w3.org/2000/svg">
<g clip-path="url(#clip0_274_74)">
<path d="M91.3565 47.5298V28.3722H86.8872V25.7735H91.3565V16.2952H94.2063V25.7735H103.082V28.3722H94.2063V47.3164C94.2063 49.551 94.495 51.3337 95.085 52.6644C95.6751 54.0077 96.3907 55.0497 97.2192 55.7653C98.0478 56.4809 98.9392 56.958 99.8682 57.1714C100.797 57.3722 101.588 57.4727 102.266 57.4727C102.68 57.4727 103.057 57.4476 103.421 57.4099C103.547 57.4099 103.685 57.3848 103.823 57.3471V59.9961C103.685 60.0463 103.521 60.0714 103.346 60.0714C103.208 60.0714 103.032 60.0714 102.831 60.0965C102.618 60.1216 102.379 60.1341 102.115 60.1341C101.249 60.1341 100.207 60.0086 98.9643 59.7575C97.7214 59.5064 96.5288 58.9541 95.3989 58.0878C94.269 57.2216 93.3024 55.9536 92.5115 54.2714C91.7205 52.5891 91.3188 50.3294 91.3188 47.5173L91.3565 47.5298ZM108.782 42.6086C108.782 40.1103 109.246 37.7878 110.163 35.6536C111.092 33.5194 112.347 31.6614 113.929 30.067C115.511 28.4727 117.369 27.2298 119.49 26.3134C121.624 25.4095 123.897 24.945 126.332 24.945C128.78 24.945 131.065 25.3969 133.187 26.3134C135.308 27.2173 137.166 28.4727 138.748 30.067C140.33 31.6614 141.585 33.5194 142.514 35.6536C143.443 37.7878 143.895 40.1103 143.895 42.6086C143.895 45.1571 143.431 47.5298 142.514 49.7393C141.585 51.9489 140.33 53.8571 138.748 55.464C137.166 57.0709 135.308 58.3515 133.187 59.2805C131.053 60.2095 128.768 60.674 126.332 60.674C123.897 60.674 121.612 60.2095 119.49 59.2805C117.369 58.3515 115.511 57.0709 113.929 55.464C112.347 53.8445 111.092 51.9363 110.163 49.7393C109.234 47.5298 108.782 45.1571 108.782 42.6086ZM111.757 42.6086C111.757 44.793 112.146 46.8142 112.912 48.6848C113.678 50.5428 114.72 52.1623 116.025 53.5181C117.343 54.8865 118.875 55.9536 120.645 56.732C122.403 57.4978 124.298 57.887 126.332 57.887C128.366 57.887 130.262 57.4978 132.032 56.732C133.802 55.9536 135.334 54.8865 136.652 53.5181C137.97 52.1497 138.999 50.5428 139.765 48.6848C140.531 46.8268 140.92 44.793 140.92 42.6086C140.92 40.4744 140.531 38.516 139.765 36.7207C138.999 34.9255 137.957 33.3562 136.652 32.0129C135.334 30.6696 133.802 29.6276 132.032 28.8744C130.262 28.1212 128.366 27.7445 126.332 27.7445C124.298 27.7445 122.403 28.1212 120.645 28.8744C118.875 29.6151 117.343 30.6696 116.025 32.0129C114.707 33.3562 113.678 34.9255 112.912 36.7207C112.134 38.516 111.757 40.4744 111.757 42.6086ZM152.031 59.858V16.2324C152.031 15.2406 151.528 14.7385 150.537 14.7385H147.611V12.1398H150.938C152.344 12.1398 153.349 12.4411 153.951 13.0562C154.566 13.6714 154.88 14.6757 154.88 16.0943V39.2818H158.81C159.488 39.2818 160.228 39.1437 161.019 38.8675C161.81 38.5913 162.45 38.1393 162.953 37.4991L172.519 25.7735H176.31L166.003 38.1142C165.551 38.6164 165.162 39.0181 164.848 39.3445C164.534 39.6584 164.258 39.8844 164.032 40.0225C163.806 40.2108 163.605 40.3363 163.417 40.4242V40.5623C163.605 40.6627 163.806 40.8134 164.032 41.0393C164.208 41.2276 164.421 41.4536 164.672 41.7549C164.924 42.0562 165.187 42.4454 165.451 42.9476L172.569 55.7025C172.933 56.3428 173.31 56.7571 173.724 56.958C174.138 57.1588 174.829 57.2593 175.821 57.2593H177.453V59.858H175.695C174.791 59.858 174.038 59.8077 173.423 59.7199C172.808 59.6194 172.293 59.4437 171.853 59.1675C171.427 58.8913 171.025 58.5147 170.661 58.0376C170.297 57.5605 169.92 56.958 169.506 56.2298L162.325 43.3493C161.961 42.6714 161.396 42.232 160.63 42.0562C159.852 41.8679 159.149 41.78 158.521 41.78H154.868V59.8454H152.018L152.031 59.858ZM180.503 42.8848C180.503 40.0225 180.955 37.4865 181.859 35.2519C182.763 33.0173 183.968 31.1467 185.487 29.6276C187.006 28.1086 188.764 26.9536 190.747 26.1502C192.743 25.3593 194.815 24.9575 196.987 24.9575C199.297 24.9575 201.318 25.3718 203.05 26.2129C204.795 27.0541 206.239 28.1839 207.394 29.6276C208.549 31.0588 209.415 32.716 209.98 34.5991C210.545 36.4822 210.834 38.4532 210.834 40.4995C210.834 40.8259 210.809 41.2277 210.759 41.7298C210.759 41.9181 210.734 42.119 210.696 42.345H183.516C183.516 44.793 183.905 46.99 184.671 48.9108C185.45 50.8441 186.492 52.4761 187.822 53.8194C189.166 55.1627 190.71 56.167 192.467 56.845C194.237 57.5229 196.083 57.8618 198.029 57.8618C199.661 57.8618 201.117 57.6359 202.398 57.1839C203.691 56.732 204.808 56.2298 205.762 55.69C206.804 55.0999 207.721 54.3969 208.537 53.5809L210.093 55.9662C209.139 56.8199 208.06 57.5982 206.842 58.2761C205.712 58.9541 204.419 59.5315 202.975 59.9835C201.531 60.4354 199.887 60.6614 198.029 60.6614C195.631 60.6614 193.371 60.2471 191.25 59.406C189.115 58.5649 187.27 57.3722 185.688 55.8281C184.106 54.2839 182.851 52.4134 181.934 50.2415C181.005 48.0571 180.541 45.5965 180.541 42.8722L180.503 42.8848ZM183.705 39.6835H207.834C207.746 37.5995 207.382 35.7792 206.779 34.2601C206.164 32.7411 205.373 31.4857 204.381 30.5064C203.377 29.5398 202.234 28.8116 200.954 28.3346C199.661 27.8575 198.318 27.619 196.924 27.619C195.38 27.619 193.886 27.8701 192.417 28.3722C190.948 28.8744 189.63 29.6276 188.45 30.6571C187.27 31.674 186.266 32.9419 185.424 34.4359C184.583 35.9424 184.018 37.6874 183.705 39.696V39.6835ZM217.387 42.8848C217.387 40.0225 217.839 37.4865 218.743 35.2519C219.647 33.0173 220.852 31.1467 222.371 29.6276C223.89 28.1086 225.635 26.9536 227.631 26.1502C229.627 25.3593 231.699 24.9575 233.871 24.9575C236.181 24.9575 238.202 25.3718 239.934 26.2129C241.679 27.0541 243.123 28.1839 244.278 29.6276C245.433 31.0588 246.287 32.716 246.852 34.5991C247.417 36.4822 247.705 38.4532 247.705 40.4995C247.705 40.8259 247.68 41.2277 247.643 41.7298C247.643 41.9181 247.618 42.119 247.58 42.345H220.4C220.4 44.793 220.789 46.99 221.555 48.9108C222.334 50.8441 223.376 52.4761 224.706 53.8194C226.037 55.1627 227.581 56.167 229.351 56.845C231.121 57.5229 232.967 57.8618 234.913 57.8618C236.545 57.8618 238.001 57.6359 239.282 57.1839C240.575 56.732 241.692 56.2298 242.634 55.69C243.676 55.0999 244.605 54.3969 245.421 53.5809L246.977 55.9662C246.023 56.8199 244.943 57.5982 243.726 58.2761C242.596 58.9541 241.303 59.5315 239.859 59.9835C238.415 60.4354 236.771 60.6614 234.913 60.6614C232.515 60.6614 230.255 60.2471 228.134 59.406C225.999 58.5649 224.154 57.3722 222.572 55.8281C220.99 54.2839 219.735 52.4134 218.818 50.2415C217.889 48.0571 217.425 45.5965 217.425 42.8722L217.387 42.8848ZM220.576 39.6835H244.718C244.617 37.5995 244.266 35.7792 243.663 34.2601C243.048 32.7411 242.244 31.4857 241.253 30.5064C240.261 29.5398 239.118 28.8116 237.838 28.3346C236.545 27.8575 235.202 27.619 233.795 27.619C232.264 27.619 230.757 27.8701 229.289 28.3722C227.82 28.8744 226.489 29.6276 225.309 30.6571C224.129 31.674 223.124 32.9419 222.296 34.4359C221.455 35.9424 220.877 37.6874 220.563 39.696L220.576 39.6835ZM257.322 59.858V29.8536C257.322 28.8618 256.82 28.3597 255.828 28.3597H252.915V25.761H256.242C257.648 25.761 258.653 26.0623 259.255 26.6523C259.87 27.2424 260.172 28.1965 260.172 29.5147V31.4229C260.172 31.8246 260.172 32.2012 260.147 32.5402C260.121 32.8792 260.109 33.1679 260.109 33.3939C260.109 33.7203 260.084 33.9965 260.046 34.2225H260.184C260.448 33.4064 260.95 32.4523 261.678 31.3852C262.406 30.3181 263.36 29.3138 264.566 28.3597C265.758 27.4056 267.177 26.5896 268.809 25.9367C270.441 25.2839 272.311 24.9575 274.433 24.9575C276.655 24.9575 278.476 25.2714 279.919 25.8991C281.376 26.5393 282.518 27.4307 283.347 28.5982C284.188 29.7532 284.765 31.1467 285.104 32.7913C285.443 34.4233 285.619 36.2437 285.619 38.2398V55.7528C285.619 56.7445 286.121 57.2467 287.113 57.2467H290.025V59.8454H286.698C285.292 59.8454 284.288 59.5441 283.686 58.9289C283.083 58.3138 282.769 57.3095 282.769 55.8909V39.2567C282.769 37.7502 282.694 36.3064 282.531 34.9255C282.367 33.5445 282.003 32.3142 281.438 31.2471C280.873 30.18 280.032 29.3264 278.927 28.6861C277.823 28.0458 276.316 27.732 274.421 27.732C272.839 27.732 271.307 28.0082 269.838 28.548C268.369 29.1004 267.026 29.8536 265.808 30.8077C264.578 31.7619 263.536 32.8917 262.657 34.2225C261.779 35.5532 261.138 36.9969 260.724 38.5913C260.498 39.3194 260.347 40.0601 260.285 40.8385C260.222 41.6168 260.184 42.4077 260.184 43.2238V59.858H257.334H257.322Z" fill="#69BD45"/>
<g clip-path="url(#clip1_274_74)">
<path d="M0 15.4792V30.9584H20.8022V41.8303H0V72.8013H30.7952V51.8736H41.6043V72.8013H72.3996V41.8303H51.5974V30.9584H72.3996V0H41.6043V20.9277H30.7952V0H0V15.4792ZM29.1004 11.3113V20.9277H26.6398V4.18052H4.15541V26.803H20.8022V29.2762H1.69481V1.69481H29.113V11.3113H29.1004ZM70.7173 15.4792V29.2636H51.5974V26.7905H68.2442V4.18052H45.7472V20.9277H43.2866V1.69481H70.7048V15.4792H70.7173ZM24.9576 13.3952V20.9152H22.497V8.34848H8.29827V22.6225H20.8022V25.0957H5.83766V5.87532H24.9576V13.3952ZM66.5619 15.4792V25.0957H51.5974V22.6225H64.1013V8.34848H49.9151V20.9152H47.4545V5.87532H66.5745V15.4918L66.5619 15.4792ZM20.8022 15.4792V20.9152H9.99307V10.0433H20.8022V15.4792ZM62.4065 15.4792V20.9152H51.5974V10.0433H62.4065V15.4792ZM24.9576 23.8528V25.0957H22.497V22.6225H24.9576V23.8654V23.8528ZM29.1004 23.8528V25.0957H26.6398V22.6225H29.1004V23.8654V23.8528ZM41.6043 23.8528V25.0957H30.7952V22.6225H41.6043V23.8654V23.8528ZM45.7597 23.8528V25.0957H43.2991V22.6225H45.7597V23.8654V23.8528ZM49.9026 23.8528V25.0957H47.442V22.6225H49.9026V23.8654V23.8528ZM24.9576 28.0333V29.2762H22.497V26.803H24.9576V28.0459V28.0333ZM29.1004 28.0333V29.2762H26.6398V26.803H29.1004V28.0459V28.0333ZM41.6043 28.0333V29.2762H30.7952V26.803H41.6043V28.0459V28.0333ZM45.7597 28.0333V29.2762H43.2991V26.803H45.7597V28.0459V28.0333ZM49.9026 28.0333V29.2762H47.442V26.803H49.9026V28.0459V28.0333ZM24.9576 36.4069V41.8429H22.497V30.971H24.9576V36.4069ZM29.1004 36.4069V41.8429H26.6398V30.971H29.1004V36.4069ZM41.6043 36.4069V41.8429H30.7952V30.971H41.6043V36.4069ZM45.7597 36.4069V41.8429H43.2991V30.971H45.7597V36.4069ZM49.9026 36.4069V41.8429H47.442V30.971H49.9026V36.4069ZM20.8022 44.7805V46.0234H4.15541V68.6459H26.6524V51.8987H29.113V71.119H1.69481V43.5502H20.8147V44.7931L20.8022 44.7805ZM24.9576 44.7805V46.0234H22.497V43.5502H24.9576V44.7931V44.7805ZM29.1004 44.7805V46.0234H26.6398V43.5502H29.1004V44.7931V44.7805ZM41.6043 44.7805V46.0234H30.7952V43.5502H41.6043V44.7931V44.7805ZM45.7597 44.7805V46.0234H43.2991V43.5502H45.7597V44.7931V44.7805ZM49.9026 44.7805V46.0234H47.442V43.5502H49.9026V44.7931V44.7805ZM70.7173 57.3346V71.119H43.2991V51.8987H45.7597V68.6459H68.2567V46.0234H51.61V43.5502H70.7299V57.3346H70.7173ZM20.8022 48.961V50.2039H8.29827V64.4779H22.4844V51.9113H24.945V66.9636H5.83766V47.7433H20.8022V48.9861V48.961ZM24.9576 48.961V50.2039H22.497V47.7307H24.9576V48.9736V48.961ZM29.1004 48.961V50.2039H26.6398V47.7307H29.1004V48.9736V48.961ZM41.6043 48.961V50.2039H30.7952V47.7307H41.6043V48.9736V48.961ZM45.7597 48.961V50.2039H43.2991V47.7307H45.7597V48.9736V48.961ZM49.9026 48.961V50.2039H47.442V47.7307H49.9026V48.9736V48.961ZM66.5619 57.3346V66.9511H47.442V51.8987H49.9026V64.4654H64.0887V50.1913H51.5849V47.7182H66.5493V57.3346H66.5619ZM20.8022 57.3346V62.7706H9.99307V51.8987H20.8022V57.3346ZM62.4065 57.3346V62.7706H51.5974V51.8987H62.4065V57.3346Z" fill="#FAC463"/>
<path d="M12.4536 15.4792V18.442H18.3415V12.5165H12.4536V15.4792ZM16.609 15.4792V16.697H14.1986V14.2741H16.609V15.4918V15.4792ZM54.0579 15.4792V18.442H59.9458V12.5165H54.0579V15.4792ZM58.2134 15.4792V16.697H55.803V14.2741H58.2134V15.4918V15.4792ZM33.2558 36.407V39.3697H39.1437V33.4442H33.2558V36.407ZM37.4112 36.407V37.6247H35.0008V35.2018H37.4112V36.4195V36.407ZM12.4536 57.3347V60.2974H18.3415V54.3719H12.4536V57.3347ZM16.609 57.3347V58.5524H14.1986V56.1295H16.609V57.3472V57.3347ZM54.0579 57.3347V60.2974H59.9458V54.3719H54.0579V57.3347ZM58.2134 57.3347V58.5524H55.803V56.1295H58.2134V57.3472V57.3347Z" fill="#FAC463"/>
</g>
</g>
<defs>
<clipPath id="clip0_274_74">
<rect width="290" height="72.8139" fill="white"/>
</clipPath>
<clipPath id="clip1_274_74">
<rect width="290" height="72.8139" fill="white"/>
</clipPath>
</defs>
</svg>
