<svg width="73" height="73" viewBox="0 0 73 73" fill="none" xmlns="http://www.w3.org/2000/svg">
<path d="M0 15.4792V30.9584H20.8022V41.8303H0V72.8013H30.7952V51.8736H41.6043V72.8013H72.3996V41.8303H51.5974V30.9584H72.3996V0H41.6043V20.9277H30.7952V0H0V15.4792ZM29.1004 11.3113V20.9277H26.6398V4.18052H4.15541V26.803H20.8022V29.2762H1.69481V1.69481H29.113V11.3113H29.1004ZM70.7173 15.4792V29.2636H51.5974V26.7905H68.2442V4.18052H45.7472V20.9277H43.2866V1.69481H70.7048V15.4792H70.7173ZM24.9576 13.3952V20.9152H22.497V8.34848H8.29827V22.6225H20.8022V25.0957H5.83766V5.87532H24.9576V13.3952ZM66.5619 15.4792V25.0957H51.5974V22.6225H64.1013V8.34848H49.9151V20.9152H47.4545V5.87532H66.5745V15.4918L66.5619 15.4792ZM20.8022 15.4792V20.9152H9.99307V10.0433H20.8022V15.4792ZM62.4065 15.4792V20.9152H51.5974V10.0433H62.4065V15.4792ZM24.9576 23.8528V25.0957H22.497V22.6225H24.9576V23.8654V23.8528ZM29.1004 23.8528V25.0957H26.6398V22.6225H29.1004V23.8654V23.8528ZM41.6043 23.8528V25.0957H30.7952V22.6225H41.6043V23.8654V23.8528ZM45.7597 23.8528V25.0957H43.2991V22.6225H45.7597V23.8654V23.8528ZM49.9026 23.8528V25.0957H47.442V22.6225H49.9026V23.8654V23.8528ZM24.9576 28.0333V29.2762H22.497V26.803H24.9576V28.0459V28.0333ZM29.1004 28.0333V29.2762H26.6398V26.803H29.1004V28.0459V28.0333ZM41.6043 28.0333V29.2762H30.7952V26.803H41.6043V28.0459V28.0333ZM45.7597 28.0333V29.2762H43.2991V26.803H45.7597V28.0459V28.0333ZM49.9026 28.0333V29.2762H47.442V26.803H49.9026V28.0459V28.0333ZM24.9576 36.4069V41.8429H22.497V30.971H24.9576V36.4069ZM29.1004 36.4069V41.8429H26.6398V30.971H29.1004V36.4069ZM41.6043 36.4069V41.8429H30.7952V30.971H41.6043V36.4069ZM45.7597 36.4069V41.8429H43.2991V30.971H45.7597V36.4069ZM49.9026 36.4069V41.8429H47.442V30.971H49.9026V36.4069ZM20.8022 44.7805V46.0234H4.15541V68.6459H26.6524V51.8987H29.113V71.119H1.69481V43.5502H20.8147V44.7931L20.8022 44.7805ZM24.9576 44.7805V46.0234H22.497V43.5502H24.9576V44.7931V44.7805ZM29.1004 44.7805V46.0234H26.6398V43.5502H29.1004V44.7931V44.7805ZM41.6043 44.7805V46.0234H30.7952V43.5502H41.6043V44.7931V44.7805ZM45.7597 44.7805V46.0234H43.2991V43.5502H45.7597V44.7931V44.7805ZM49.9026 44.7805V46.0234H47.442V43.5502H49.9026V44.7931V44.7805ZM70.7173 57.3346V71.119H43.2991V51.8987H45.7597V68.6459H68.2567V46.0234H51.61V43.5502H70.7299V57.3346H70.7173ZM20.8022 48.961V50.2039H8.29827V64.4779H22.4844V51.9113H24.945V66.9636H5.83766V47.7433H20.8022V48.9861V48.961ZM24.9576 48.961V50.2039H22.497V47.7307H24.9576V48.9736V48.961ZM29.1004 48.961V50.2039H26.6398V47.7307H29.1004V48.9736V48.961ZM41.6043 48.961V50.2039H30.7952V47.7307H41.6043V48.9736V48.961ZM45.7597 48.961V50.2039H43.2991V47.7307H45.7597V48.9736V48.961ZM49.9026 48.961V50.2039H47.442V47.7307H49.9026V48.9736V48.961ZM66.5619 57.3346V66.9511H47.442V51.8987H49.9026V64.4654H64.0887V50.1913H51.5849V47.7182H66.5493V57.3346H66.5619ZM20.8022 57.3346V62.7706H9.99307V51.8987H20.8022V57.3346ZM62.4065 57.3346V62.7706H51.5974V51.8987H62.4065V57.3346Z" fill="#FAC463"/>
</svg>
